<?xml version="1.0" encoding="utf-8"?>
<!-- Generator: Adobe Illustrator 23.0.6, SVG Export Plug-In . SVG Version: 6.00 Build 0)  -->
<svg version="1.1" xmlns="http://www.w3.org/2000/svg" xmlns:xlink="http://www.w3.org/1999/xlink" x="0px" y="0px"
	 viewBox="0 0 200 200" style="enable-background:new 0 0 200 200;" xml:space="preserve">
<style type="text/css">
	.st0{fill:#3F3D56;}
	.st1{fill:#D0CDE1;}
	.st2{fill:#F2F2F2;}
	.st3{fill:#FFC107;}
	.st4{opacity:0.36;fill:#FA81A2;}
	.st5{fill:#B86A4B;}
	.st6{fill:#4285F4;}
	.st7{fill:#2F2E41;}
	.st8{display:none;}
</style>
<g id="Layer_1">
	<g>
		<polygon class="st0" points="106.99,94.7 188,140.37 92.34,195.53 12.19,148.13 		"/>
		<polygon class="st1" points="106.99,90.39 188,136.06 92.34,191.22 12.19,143.82 		"/>
	</g>
	<path class="st0" d="M17.46,180c-3.59,0-6.5-2.91-6.5-6.5c0-3.59,2.91-6.5,6.5-6.5s6.5,2.91,6.5,6.5
		C23.96,177.09,21.05,180,17.46,180z M17.46,168.08c-2.99,0-5.42,2.43-5.42,5.42c0,2.99,2.43,5.42,5.42,5.42s5.42-2.43,5.42-5.42
		c0,0,0,0,0,0C22.87,170.51,20.45,168.09,17.46,168.08z"/>
	<path class="st0" d="M181.75,172.58c-3.2,0-5.79-2.59-5.79-5.79c0-3.2,2.59-5.79,5.79-5.79c3.2,0,5.79,2.59,5.79,5.79
		C187.54,169.99,184.95,172.58,181.75,172.58z M181.75,161.97c-2.67,0-4.83,2.16-4.83,4.83c0,2.67,2.16,4.83,4.83,4.83
		s4.83-2.16,4.83-4.83c0,0,0,0,0,0C186.57,164.13,184.41,161.97,181.75,161.97z"/>
	<path class="st0" d="M22.6,129.68l-6.6-7.08l7.08-6.6l6.6,7.08L22.6,129.68z M17.05,122.64l5.59,5.99l5.99-5.59l-5.59-5.99
		L17.05,122.64z"/>
	<path class="st0" d="M160.6,192.68l-6.6-7.08l7.08-6.6l6.6,7.08L160.6,192.68z M155.05,185.64l5.59,5.99l5.99-5.59l-5.59-5.99
		L155.05,185.64z"/>
	<circle class="st2" cx="186.25" cy="121.57" r="8.36"/>
	<circle class="st2" cx="52.25" cy="10.07" r="6.59"/>
	
		<ellipse transform="matrix(0.7071 -0.7071 0.7071 0.7071 36.4376 135.1222)" class="st3" cx="181.33" cy="23.58" rx="13.61" ry="13.61"/>
	<circle class="st2" cx="13.33" cy="60.58" r="9.37"/>
	<path class="st0" d="M132.87,29.68l-12.88-13.8L133.8,3l12.88,13.8L132.87,29.68z M122.05,15.95l10.89,11.68l11.68-10.89
		L133.73,5.05L122.05,15.95z"/>
	<path class="st0" d="M182.25,94.58c-6.24,0-11.29-5.05-11.29-11.29S176.01,72,182.25,72c6.24,0,11.29,5.05,11.29,11.29
		C193.53,89.52,188.48,94.57,182.25,94.58z M182.25,73.88c-5.2,0-9.41,4.21-9.41,9.41c0,5.2,4.21,9.41,9.41,9.41
		c5.2,0,9.41-4.21,9.41-9.41c0,0,0,0,0,0C191.65,78.1,187.44,73.89,182.25,73.88z"/>
	<g>
		<circle class="st4" cx="102.62" cy="82.92" r="79.38"/>
		<circle class="st5" cx="100.43" cy="77.41" r="25.34"/>
		<path class="st6" d="M161,136.03c-28.31,32.56-77.23,36.13-109.88,8.03l6.74-19c3.1-6.88,9.71-11.46,17.17-11.92l4.29-0.27
			l10.22-8.91c0,0,27.54-0.99,27.13-1.47l16.68,10.14l-0.01-0.07l6.56,0.41c7.46,0.45,14.07,5.04,17.17,11.92L161,136.03z"/>
		<path class="st7" d="M127.15,61.7c-2.14-7.66-7.01-14.28-13.68-18.61c-5.32-3.4-11.96-5.14-17.98-3.34
			c-6.03,1.8-11.02,7.71-10.62,14.1c-2.28-0.6-4.7,0.15-6.24,1.93c-1.51,1.79-2.56,3.91-3.06,6.2c-1.93,7.16-1.81,14.73,0.37,21.82
			l-0.12,1.02c2.94-0.49,5.17-3.01,6.56-5.7c1.39-2.69,2.18-5.67,3.69-8.29c1.5-2.62,4-4.96,6.98-5.04l-0.26,4.55
			c2.56-1.32,5.12-2.64,7.69-3.96c-0.61,1.46-1.22,2.92-1.83,4.37c2.24-0.94,4.47-1.87,6.71-2.81c-0.25,1.4-0.5,2.8-0.75,4.2
			c2.4-4.97,8.36-7.05,13.33-4.66c0.14,0.07,0.28,0.14,0.42,0.21c2.68,1.8,4.6,4.51,5.43,7.63c0.81,3.11,1.25,6.31,1.3,9.52
			C128.52,77.64,129.26,69.42,127.15,61.7z"/>
	</g>
</g>
<g id="Layer_2" class="st8">
</g>
</svg>
