<?xml version="1.0" encoding="utf-8"?>
<!-- Generator: Adobe Illustrator 23.0.6, SVG Export Plug-In . SVG Version: 6.00 Build 0)  -->
<svg version="1.1" id="Layer_1" xmlns="http://www.w3.org/2000/svg" xmlns:xlink="http://www.w3.org/1999/xlink" x="0px" y="0px"
	 viewBox="0 0 200 200" style="enable-background:new 0 0 200 200;" xml:space="preserve">
<style type="text/css">
	.st0{fill:#3F3D56;}
	.st1{fill:#D0CDE1;}
	.st2{fill:#F2F2F2;}
	.st3{fill:#4285F4;}
	.st4{opacity:0.36;fill:#FFC107;enable-background:new    ;}
	.st5{fill:#2F2E41;}
	.st6{fill:#FFB9B9;}
	.st7{fill:#198754;}
</style>
<g>
	<polygon class="st0" points="106.99,94.7 188,140.37 92.34,195.53 12.19,148.13 	"/>
	<polygon class="st1" points="106.99,90.39 188,136.06 92.34,191.22 12.19,143.82 	"/>
</g>
<path class="st0" d="M17.46,180c-3.59,0-6.5-2.91-6.5-6.5s2.91-6.5,6.5-6.5s6.5,2.91,6.5,6.5S21.05,180,17.46,180z M17.46,168.08
	c-2.99,0-5.42,2.43-5.42,5.42s2.43,5.42,5.42,5.42s5.42-2.43,5.42-5.42l0,0C22.87,170.51,20.45,168.09,17.46,168.08z"/>
<path class="st0" d="M181.75,172.58c-3.2,0-5.79-2.59-5.79-5.79s2.59-5.79,5.79-5.79s5.79,2.59,5.79,5.79
	S184.95,172.58,181.75,172.58z M181.75,161.97c-2.67,0-4.83,2.16-4.83,4.83s2.16,4.83,4.83,4.83s4.83-2.16,4.83-4.83l0,0
	C186.57,164.13,184.41,161.97,181.75,161.97z"/>
<path class="st0" d="M22.6,129.68L16,122.6l7.08-6.6l6.6,7.08L22.6,129.68z M17.05,122.64l5.59,5.99l5.99-5.59l-5.59-5.99
	L17.05,122.64z"/>
<path class="st0" d="M160.6,192.68l-6.6-7.08l7.08-6.6l6.6,7.08L160.6,192.68z M155.05,185.64l5.59,5.99l5.99-5.59l-5.59-5.99
	L155.05,185.64z"/>
<circle class="st2" cx="186.25" cy="121.57" r="8.36"/>
<circle class="st2" cx="52.25" cy="10.07" r="6.59"/>
<ellipse class="st3" cx="181.33" cy="23.58" rx="13.61" ry="13.61"/>
<circle class="st2" cx="13.33" cy="60.58" r="9.37"/>
<g>
	<path class="st4" d="M179,83.57c0,43.63-35.37,79-79,79s-79-35.37-79-79s35.37-79,79-79l0,0c43.44-0.19,78.81,34.86,79,78.3
		C179,83.11,179,83.34,179,83.57z"/>
	<path class="st5" d="M134.31,72.67L134.31,72.67l-0.39,0.7c3.48-8.57,0.32-19.14-5.89-25.61c-6.21-6.47-14.83-9.42-23.33-10.59
		c-6.31-1.11-12.79-0.61-18.85,1.46c-8.68,3.35-15.32,11.09-20.86,19.15c-2.53,3.68-5.03,7.89-4.77,12.49
		c0.23,4.27,2.77,7.9,4.85,11.53s3.81,8.13,2.32,12.08c-0.89,2.36-2.77,4.06-4.29,5.99c-1.52,1.93-2.78,4.54-2.04,6.96
		c0.66,1.88,2.27,3.28,4.23,3.68c1.86,0.31,3.77,0.27,5.62-0.13l48.43-7.32c11.27-1.7,19.03-12.22,17.32-23.49
		C136.29,77.15,135.49,74.81,134.31,72.67z"/>
	<circle class="st6" cx="98.29" cy="79.05" r="23.68"/>
	<path class="st7" d="M159.32,135.73c-28.48,32.4-77.69,35.96-110.53,7.99l6.78-18.91c3.12-6.84,9.76-11.4,17.27-11.86l4.31-0.26
		l10.28-8.87c0,0,27.7-0.99,27.28-1.46l16.78,10.09l-0.01-0.07l6.59,0.4c7.51,0.45,14.15,5.02,17.27,11.86L159.32,135.73z"/>
	<path class="st5" d="M120.75,57.07c-0.61-3.23-3.91-4.71-6.73-5.43c-8.2-2.09-16.72-2.56-25.1-1.38
		c-6.11,0.87-12.36,2.79-16.79,7.56c-3.57,4.01-5.6,9.17-5.71,14.54c-0.18,3.21,0.54,6.41,2.07,9.24c1.4,2.68,4.1,4.42,7.12,4.59
		l0.28,0.99c12.4-2,23.32-9.31,29.88-20.02c-1.31,4.66-3.9,8.86-7.49,12.1c8.03-3.21,15-8.59,20.15-15.53
		C119.85,61.86,121.21,59.53,120.75,57.07z"/>
</g>
<path class="st0" d="M132.87,29.68l-12.88-13.8L133.8,3l12.88,13.8L132.87,29.68z M122.05,15.95l10.89,11.68l11.68-10.89
	L133.73,5.05L122.05,15.95z"/>
<path class="st0" d="M182.25,94.58c-6.24,0-11.29-5.05-11.29-11.29S176.01,72,182.25,72s11.29,5.05,11.29,11.29
	C193.53,89.52,188.48,94.57,182.25,94.58z M182.25,73.88c-5.2,0-9.41,4.21-9.41,9.41s4.21,9.41,9.41,9.41s9.41-4.21,9.41-9.41l0,0
	C191.65,78.1,187.44,73.89,182.25,73.88z"/>
</svg>
