<?xml version="1.0" encoding="utf-8"?>
<!-- Generator: Adobe Illustrator 23.0.6, SVG Export Plug-In . SVG Version: 6.00 Build 0)  -->
<svg version="1.1" id="Layer_1" xmlns="http://www.w3.org/2000/svg" xmlns:xlink="http://www.w3.org/1999/xlink" x="0px" y="0px"
	 viewBox="0 0 200 200" style="enable-background:new 0 0 200 200;" xml:space="preserve">
<style type="text/css">
	.st0{fill:#3F3D56;}
	.st1{fill:#D0CDE1;}
	.st2{fill:#F2F2F2;}
	.st3{fill:#DC3545;}
	.st4{opacity:0.5;fill:#0DCAF0;}
	.st5{fill:#2F2E41;}
	.st6{fill:#9E616A;}
	.st7{fill:#FFC107;}
</style>
<g>
	<polygon class="st0" points="106.99,94.7 188,140.37 92.34,195.53 12.19,148.13 	"/>
	<polygon class="st1" points="106.99,90.39 188,136.06 92.34,191.22 12.19,143.82 	"/>
</g>
<path class="st0" d="M17.46,180c-3.59,0-6.5-2.91-6.5-6.5s2.91-6.5,6.5-6.5s6.5,2.91,6.5,6.5S21.05,180,17.46,180z M17.46,168.08
	c-2.99,0-5.42,2.43-5.42,5.42s2.43,5.42,5.42,5.42s5.42-2.43,5.42-5.42l0,0C22.87,170.51,20.45,168.09,17.46,168.08z"/>
<path class="st0" d="M181.75,172.58c-3.2,0-5.79-2.59-5.79-5.79s2.59-5.79,5.79-5.79s5.79,2.59,5.79,5.79
	S184.95,172.58,181.75,172.58z M181.75,161.97c-2.67,0-4.83,2.16-4.83,4.83s2.16,4.83,4.83,4.83s4.83-2.16,4.83-4.83l0,0
	C186.57,164.13,184.41,161.97,181.75,161.97z"/>
<path class="st0" d="M22.6,129.68L16,122.6l7.08-6.6l6.6,7.08L22.6,129.68z M17.05,122.64l5.59,5.99l5.99-5.59l-5.59-5.99
	L17.05,122.64z"/>
<path class="st0" d="M160.6,192.68l-6.6-7.08l7.08-6.6l6.6,7.08L160.6,192.68z M155.05,185.64l5.59,5.99l5.99-5.59l-5.59-5.99
	L155.05,185.64z"/>
<circle class="st2" cx="186.25" cy="121.57" r="8.36"/>
<circle class="st2" cx="52.25" cy="10.07" r="6.59"/>
<ellipse class="st3" cx="181.33" cy="23.58" rx="13.61" ry="13.61"/>
<circle class="st2" cx="13.33" cy="60.58" r="9.37"/>
<g>
	<path class="st4" d="M178.7,83.37c-0.08,43.46-35.37,78.64-78.84,78.56c-43.46-0.08-78.64-35.37-78.56-78.84
		c0.08-43.46,35.37-78.64,78.84-78.56c43.35-0.04,78.52,35.08,78.56,78.43C178.7,83.1,178.7,83.23,178.7,83.37z"/>
	<path class="st5" d="M63.52,68.15c3.25-10.37,10.65-19.88,20.89-23.39c10.23-3.51,25.22,1.83,32.92,9.5
		c14.07,14.03,17.51,62.21,7.84,77.44c-1.92-0.1-8.56-0.18-10.51-0.25l-2.75-9.18v9.09c-3.1-0.1-6.23-0.16-9.38-0.2
		c-21.95-0.27-39.75-17.86-40.29-39.8C61.99,81.26,62.24,72.23,63.52,68.15z"/>
	<circle class="st6" cx="98.83" cy="80.09" r="22.43"/>
	<path class="st5" d="M79.48,60.39l25.82-12.93l0,0c10.75,4.84,18.03,15.14,19.01,26.89l0.64,7.71l-10.81-2.75l-1.18-9.86
		l-1.84,9.09l-4.99-1.27l0.05-15.31l-4.99,15.3l-17.82-4.1L79.48,60.39z"/>
	<path class="st7" d="M158.4,135.31c-28.37,32.28-77.39,35.82-110.11,7.96l6.75-18.84c3.11-6.82,9.73-11.36,17.21-11.81l4.29-0.26
		l10.24-8.83c0,0,27.59-0.99,27.18-1.46l16.71,10.05l-0.01-0.07l6.57,0.4c7.48,0.45,14.1,5,17.21,11.81L158.4,135.31z"/>
</g>
<path class="st0" d="M182.25,94.58c-6.24,0-11.29-5.05-11.29-11.29S176.01,72,182.25,72s11.29,5.05,11.29,11.29
	C193.53,89.52,188.48,94.57,182.25,94.58z M182.25,73.88c-5.2,0-9.41,4.21-9.41,9.41s4.21,9.41,9.41,9.41s9.41-4.21,9.41-9.41l0,0
	C191.65,78.1,187.44,73.89,182.25,73.88z"/>
<path class="st0" d="M132.87,29.68l-12.88-13.8L133.8,3l12.88,13.8L132.87,29.68z M122.05,15.95l10.89,11.68l11.68-10.89
	L133.73,5.05L122.05,15.95z"/>
</svg>
